PathFileType	4	(X/Y/Z)	C:/Users/beibeiliu/ov580/test_trc/User3\sequence.11_training_dense_right.trc
DataRate	CameraRate	NumFrames	NumMarkers	Units	OrigDataRate	OrigDataStartFrame	OrigNumFrames
120	120	16	19	mm	120	148	196
Frame#	Time	ThumbCMC			ThumbMCP			ThumbIP			ThumbTip			IndexMCP			IndexPIP			IndexTip			MiddleMCP			MiddlePIP			MiddleTip			RingMCP			RingPIP			RingTip			PinkyMCP			PinkyPIP			PinkyTip			BackHand1			BackHand2			BackHand3	
		X0	Y0	Z0	X1	Y1	Z1	X2	Y2	Z2	X3	Y3	Z3	X4	Y4	Z4	X5	Y5	Z5	X6	Y6	Z6	X7	Y7	Z7	X8	Y8	Z8	X9	Y9	Z9	X10	Y10	Z10	X11	Y11	Z11	X12	Y12	Z12	X13	Y13	Z13	X14	Y14	Z14	X15	Y15	Z15	X16	Y16	Z16	X17	Y17	Z17	X18	Y18	Z18	
147	1.225	191.132	-10.536	22.0084	184.699	-1.64435	-0.84524	183.112	12.6693	-26.0486	180.337	25.0913	-42.6612	208.943	-36.269	-47.6515	211.636	-32.2213	-72.3344	216.972	-30.3009	-97.7428	221.91	-64.7439	-44.5486	229.93	-66.7947	-72.4435	237.865	-70.888	-101.735	216.593	-80.4899	-31.9481	225.808	-90.5769	-51.5657	235.106	-100.594	-74.7833	205.741	-97.6637	-11.4673	211.216	-115.3	-24.698	220.094	-131.412	-37.2003	218.776	-67.0627	13.0407	219.354	-63.094	38.9962	216.135	-36.675	20.5288	
148	1.23333	184.12	-11.9821	24.3428	176.224	0.413128	-1.40104	172.467	14.6092	-27.4408	166.213	26.1819	-39.9819	205.164	-29.0061	-48.9892	206.268	-26.9804	-74.7683	210.269	-20.89	-97.483	221.673	-55.4935	-45.1549	229.097	-59.4322	-67.7509	238.645	-64.0912	-100.235	221.311	-74.3546	-33.9427	230.938	-83.9514	-51.1724	239.237	-90.3906	-76.0695	215.926	-96.4981	-13.3747	222.43	-112.992	-26.5423	230.491	-125.882	-43.7976	219.96	-63.6744	11.8231	221.395	-56.8823	41.7338	214.842	-31.6772	20.941	
149	1.24167	174.055	-11.1727	26.421	165.768	-4.6727	4.22416	157.514	12.4856	-23.9754	150.718	19.5459	-40.5547	199.703	-27.8852	-46.2439	198.355	-23.6242	-69.6192	202.259	-18.768	-92.4772	218.925	-47.8522	-42.5866	226.611	-49.6439	-68.9644	238.505	-52.781	-99.1659	222.126	-67.3703	-33.4932	231.738	-74.4601	-51.8963	245.661	-81.8473	-78.4926	221.631	-90.8383	-15.3094	230.471	-103.955	-28.6353	240.305	-116.641	-45.2703	221.205	-55.0219	13.3193	222.646	-52.5339	42.3332	206.872	-24.1637	18.9894	
150	1.25	167.574	-15.3607	28.5905	157.435	-7.85191	2.04433	146.806	4.59905	-19.9064	137.201	17.0558	-36.2444	191.053	-23.1534	-44.4821	189.084	-16.8918	-67.5565	191.596	-10.6126	-95.7429	217.846	-43.5668	-44.2856	225.947	-43.5596	-70.7573	236.327	-42.7459	-99.5334	223.158	-63.0512	-31.5025	236.035	-66.7051	-55.0845	245.095	-69.8026	-75.1667	223.894	-83.2627	-14.5388	234.003	-94.8736	-26.5694	248.208	-107.354	-43.3582	220.668	-48.7373	11.1566	220.444	-45.4272	40.2218	201.777	-23.0892	19.1877	
151	1.25833	160.798	-17.7965	27.2902	147.416	-11.6442	5.7932	138.763	-2.31108	-20.7107	125.776	6.96116	-35.4156	183.107	-22.4527	-42.7662	183.511	-19.6355	-66.6868	185.194	-11.1983	-94.0289	213.108	-39.7125	-40.9842	219.891	-36.846	-67.6539	227.732	-32.1769	-95.9846	226.786	-59.3708	-33.7829	236.579	-60.4901	-53.4169	245.948	-63.5113	-72.9325	229.347	-80.3353	-11.058	239.522	-88.9776	-28.1033	253.467	-99.6159	-43.7186	217.143	-43.8891	12.9369	219.678	-42.9363	45.7842	194.811	-21.3395	20.9722	
152	1.26667	155.842	-25.2154	30.2792	140.173	-19.1668	8.50579	124.498	-6.98328	-19.2673	113.489	-0.940089	-31.5064	178.993	-24.8168	-42.244	174.899	-18.333	-66.8211	175.429	-11.7788	-90.6122	210.275	-34.01	-44.8302	213.273	-30.1472	-68.8871	225.839	-26.6879	-95.2151	221.803	-52.5451	-30.0999	229.502	-51.3726	-50.2058	242.172	-51.5978	-73.1366	227.85	-72.5028	-12.6438	244.119	-83.0057	-27.9862	255.55	-87.0254	-40.7251	217.874	-40.9216	15.2758	211.029	-36.3837	45.7686	186.276	-19.9452	23.9629	
153	1.275	148.514	-27.5402	34.0583	133.104	-23.7014	9.2458	116.794	-14.8124	-17.1343	102.126	-11.6981	-28.3868	167.956	-22.9267	-42.8835	166.099	-18.9098	-66.0615	166.609	-13.5649	-88.8324	200.214	-29.4494	-39.2193	209.68	-25.3785	-68.7973	215.983	-16.6741	-97.0828	218.227	-44.0338	-32.7331	228.464	-44.0309	-51.9076	241.862	-42.278	-72.8308	228.914	-65.2365	-12.6887	243.157	-72.7514	-27.9308	257.365	-74.6087	-44.2603	211.738	-35.9947	14.1188	210.282	-31.324	42.1185	181.115	-20.1406	25.2712	
154	1.28333	145.104	-32.1746	34.0084	128.264	-29.0356	9.4272	111.668	-25.1285	-14.8355	96.2542	-21.1483	-28.997	164.317	-25.9977	-44.9073	157.475	-21.1068	-67.6709	157.683	-17.537	-90.5537	197.132	-28.1074	-40.9846	202.35	-23.8677	-65.0945	208.669	-13.7725	-96.1397	214.515	-41.7615	-28.8806	226.321	-40.5024	-48.3231	234.512	-34.2005	-72.3237	227.694	-61.2562	-10.6237	240.296	-65.3389	-24.7674	256.678	-64.2818	-37.9512	204.095	-33.8231	15.9617	207.065	-30.4928	44.9086	174.137	-18.2636	23.4944	
155	1.29167	142.388	-35.6278	36.0722	123.977	-34.1509	11.3343	105.776	-30.9768	-13.243	94.2613	-31.6744	-28.435	160.244	-29.1437	-42.6578	154.147	-27.7717	-67.9684	148.957	-23.2038	-86.0847	190.253	-26.6033	-42.4412	198.884	-22.8079	-67.0999	202.502	-13.9971	-95.8979	212.599	-41.551	-26.8638	222.672	-36.0329	-49.4068	231.959	-30.4133	-73.7186	225.2	-56.9108	-8.53671	241.033	-60.0776	-25.574	255.552	-56.7113	-40.2195	204.8	-31.9724	13.5525	203.095	-29.2319	45.1362	171.236	-21.454	25.7705	
156	1.3	137.271	-36.7105	34.9226	122.104	-40.1799	14.8314	104.319	-39.64	-9.57712	89.8316	-39.3286	-23.5388	153.827	-32.8514	-41.4247	147.679	-31.9232	-67.1761	143.447	-30.4725	-86.6805	188.574	-30.243	-41.5256	188.04	-26.3048	-63.9496	197.988	-18.4028	-96.1161	207.023	-38.3756	-31.6278	216.035	-35.3272	-52.743	225.729	-30.6527	-74.6679	223.611	-55.9978	-8.59524	234.672	-57.1294	-25.4575	254.201	-53.1753	-39.8155	199.501	-31.887	13.1931	197.271	-27.3169	45.0286	168.744	-20.086	24.3794	
157	1.30833	132.592	-39.5428	37.8148	117.216	-42.4468	10.197	99.6761	-44.2001	-12.7884	86.6616	-46.7592	-27.0813	152.068	-39.4583	-38.3432	140.799	-39.8284	-63.681	136.7	-39.1538	-89.0766	182.207	-34.0075	-44.1821	187.2	-32.5607	-68.5742	192.076	-25.727	-96.7305	206.472	-43.9887	-28.1736	211.516	-39.8568	-48.9926	224.203	-35.5427	-71.8814	221.362	-56.4354	-7.63	231.742	-57.935	-23.996	248.482	-55.4667	-36.3852	195.592	-31.4124	18.3828	193.31	-24.2349	45.3716	161.167	-23.0927	23.9305	
158	1.31667	130.871	-43.0369	33.3372	112.879	-47.2206	15.7906	97.1338	-52.3328	-9.8059	79.7141	-54.0858	-24.0302	148.332	-44.4235	-40.7904	137.204	-47.643	-60.6736	134.865	-48.0709	-87.1478	180.504	-39.81	-40.4092	182.185	-38.6936	-65.8086	187.156	-34.6348	-95.4609	201.061	-46.7742	-28.2721	207.02	-45.4051	-48.9937	216.241	-40.0283	-76.5781	219.27	-58.5832	-6.5564	230.027	-60.6534	-25.2431	247.914	-59.3084	-34.742	193.498	-34.2943	13.2067	189.524	-28.0599	42.6351	157.516	-26.3277	22.7831	
159	1.325	127.424	-44.7726	38.7435	114.19	-53.0246	15.259	96.0168	-57.9779	-4.32109	77.6353	-61.5288	-22.1695	142.561	-51.5574	-39.4384	135.705	-55.9742	-58.8277	127.159	-57.8691	-85.0053	175.426	-45.9055	-38.2607	179.817	-46.1723	-69.668	181.134	-44.7488	-93.9825	195.089	-52.8358	-27.3017	204.406	-50.821	-50.8707	214.226	-49.2052	-72.7571	212.246	-63.3423	-6.27219	228.815	-66.358	-22.1276	241.28	-65.1972	-38.5396	191.692	-37.54	18.0423	192.026	-30.5537	42.9223	160.533	-29.0192	22.0369	
160	1.33333	128.502	-49.9767	36.6252	105.942	-56.4147	19.8612	87.2784	-62.4076	-1.13448	72.346	-67.8343	-16.0414	137.883	-58.2931	-36.5158	131.277	-64.5009	-57.717	123.812	-67.5349	-85.3122	169.76	-52.9899	-41.9564	171.275	-54.8776	-68.3735	175.965	-55.4452	-93.3265	192.74	-58.0651	-30.3092	198.559	-58.7017	-50.5556	209.626	-58.1881	-75.2554	212.406	-68.8843	-6.57429	221.35	-73.4753	-20.4516	238.29	-73.3913	-33.7406	185.959	-39.9697	18.1976	189.02	-32.1378	41.5158	152.558	-32.5924	24.5907	
161	1.34167	122.758	-52.1597	42.0359	102.826	-61.9716	21.2071	83.7959	-69.6784	-1.16219	70.6774	-75.4574	-8.61272	134.518	-64.4515	-33.4667	128.083	-72.6306	-56.7749	119.017	-79.0685	-82.591	164.306	-59.742	-40.5035	170.374	-64.14	-62.2849	167.388	-64.5903	-92.8591	188.991	-65.3062	-26.9821	195.956	-66.5933	-49.4968	203.792	-67.534	-70.3796	207.704	-74.2976	-6.59846	221.513	-79.5049	-17.5755	236.483	-79.6693	-32.4776	179.811	-44.1124	14.4484	182.365	-31.5362	45.1129	148.576	-34.4794	25.6364	
162	1.35	120.498	-53.7626	41.8029	99.1576	-63.1673	25.2448	82.1565	-72.221	6.12053	67.7517	-80.1936	-4.53007	131.851	-71.0891	-29.6264	123.771	-79.6001	-52.9643	112.04	-86.3411	-72.9168	161.866	-66.4579	-38.4151	161.498	-70.7262	-62.0329	162.29	-74.3541	-94.9968	182.845	-71.3719	-27.2324	188.904	-73.4709	-47.3293	198.285	-77.2053	-73.9333	205.489	-78.0901	-1.50713	215.716	-85.3557	-18.2957	230.871	-87.5868	-34.6137	180.946	-49.007	14.1529	182.433	-33.949	42.4249	144.335	-40.5782	23.2546	
